<?xml version="1.0" encoding="UTF-8"?>
<svg width="26px" height="13px" viewBox="0 0 26 13" version="1.1" xmlns="http://www.w3.org/2000/svg" xmlns:xlink="http://www.w3.org/1999/xlink">
    <title>Frame</title>
    <g id="Frame" stroke="none" fill="none" fill-rule="evenodd" stroke-width="1">
        <g id="Group" transform="translate(2, 5)">
            <rect id="Rectangle" fill="#F88D39" x="0" y="3.92" width="18" height="2.08"></rect>
            <rect id="Rectangle-Copy" fill="#FFDE8E" x="0" y="1.96" width="18" height="2.08"></rect>
            <rect id="Rectangle-Copy-2" fill="#49A1D9" x="0" y="0" width="18" height="2.08"></rect>
        </g>
        <g id="ICRL" transform="translate(0, -3)" fill="#292524">
            <polygon id="Path" fill-rule="nonzero" points="2.69217 4.26174 2.69217 14.90874 0.82134 14.90874 0.82134 4.26174"></polygon>
            <path d="M9.0059416,15 C8.0223616,15 7.1249716,14.76171 6.3137716,14.28513 C5.5025716,13.80855 4.8586816,13.16466 4.3821016,12.35346 C3.8953816,11.54226 3.6520216,10.64994 3.6520216,9.6765 C3.6520216,8.69292 3.8953816,7.8006 4.3821016,6.99954 C4.8485416,6.20862 5.4924316,5.56473 6.3137716,5.06787 C7.1249716,4.59129 8.0223616,4.353 9.0059416,4.353 L10.2379516,4.353 L10.2379516,6.26946 L9.0059416,6.26946 C8.0730616,6.26946 7.2669316,6.59901 6.5875516,7.25811 C5.9183116,7.92735 5.5836916,8.73348 5.5836916,9.6765 C5.5836916,10.61952 5.9183116,11.42565 6.5875516,12.09489 C7.2567916,12.76413 8.0629216,13.09875 9.0059416,13.09875 L10.2379516,13.09875 L10.2379516,15 L9.0059416,15 Z" id="Path" fill-rule="nonzero"></path>
            <path d="M14.2398032,10.52826 C14.8380632,10.52826 15.3501332,10.31532 15.7760132,9.88944 C16.1917532,9.4737 16.3996232,8.97177 16.3996232,8.38365 C16.3996232,7.79553 16.1917532,7.28346 15.7760132,6.84744 C15.3399932,6.4317 14.8279232,6.22383 14.2398032,6.22383 L13.0534232,6.22383 L13.0534232,10.52826 L14.2398032,10.52826 Z M18.2856632,8.38365 C18.2856632,9.13401 18.0930032,9.82353 17.7076832,10.45221 C17.3020832,11.09103 16.7849432,11.58282 16.1562632,11.92758 L18.2552432,15 L16.0497932,15 L14.3158532,12.39909 L13.0534232,12.39909 L13.0534232,15 L11.1825932,15 L11.1825932,4.353 L14.2398032,4.353 C15.3450632,4.353 16.2982232,4.74339 17.0992832,5.52417 C17.8902032,6.31509 18.2856632,7.26825 18.2856632,8.38365 Z" id="Shape" fill-rule="nonzero"></path>
            <polygon id="Path" fill-rule="nonzero" points="21.1923948 4.353 21.1923948 13.12917 25.2382548 13.12917 25.2382548 15 19.3215648 15 19.3215648 4.353"></polygon>
        </g>
    </g>
</svg>