<?xml version="1.0" encoding="UTF-8"?>
<svg width="27px" height="27px" viewBox="0 0 27 27" version="1.1" xmlns="http://www.w3.org/2000/svg" xmlns:xlink="http://www.w3.org/1999/xlink">
    <title>typescript-action</title>
    <defs>
        <path d="M0,0 L27,0 L27,27 L0,27 L0,0 Z" id="path-1"></path>
    </defs>
    <g id="typescript-action" stroke="none" fill="none" xlink:href="#path-1" fill-rule="evenodd">
        <use fill="#292524" xlink:href="#path-1"></use>
        <g id="Graphic" transform="translate(4, 4)" stroke-width="1">
            <g id="Group">
                <path d="M3.8458278,0 L15.1541722,2.26708535e-16 C16.4914503,-1.31724187e-16 16.9763797,0.139238417 17.4652686,0.400699056 C17.9541574,0.662159695 18.3378403,1.04584256 18.5993009,1.53473144 C18.8607616,2.02362033 19,2.50854969 19,3.8458278 L19,15.1541722 C19,16.4914503 18.8607616,16.9763797 18.5993009,17.4652686 C18.3378403,17.9541574 17.9541574,18.3378403 17.4652686,18.5993009 C16.9763797,18.8607616 16.4914503,19 15.1541722,19 L3.8458278,19 C2.50854969,19 2.02362033,18.8607616 1.53473144,18.5993009 C1.04584256,18.3378403 0.662159695,17.9541574 0.400699056,17.4652686 C0.139238417,16.9763797 0,16.4914503 0,15.1541722 L0,3.8458278 C0,2.50854969 0.139238417,2.02362033 0.400699056,1.53473144 C0.662159695,1.04584256 1.04584256,0.662159695 1.53473144,0.400699056 C2.02362033,0.139238417 2.50854969,0 3.8458278,0 Z" id="Rectangle" fill="#49A1D9"></path>
                <path d="M12.2097835,15.1119141 L12.2097835,16.6223828 C12.4644845,16.7482734 12.7657371,16.8426641 13.1134845,16.9056094 C13.461232,16.9685547 13.8277474,17 14.2130876,17 C14.5885619,17 14.9453247,16.9653828 15.2832629,16.8961484 C15.621201,16.8269141 15.9175773,16.7128359 16.1722216,16.5539687 C16.4269227,16.3950469 16.6285515,16.1873438 16.7771649,15.9308594 C16.9257216,15.6744297 17,15.3574063 17,14.9797891 C17,14.7060234 16.9575309,14.4660547 16.8726495,14.2599375 C16.7886966,14.055216 16.6638799,13.8683871 16.5052835,13.7100547 C16.3453299,13.5495469 16.1534536,13.4056094 15.9298247,13.2781328 C15.7061392,13.1507109 15.4538763,13.0303438 15.1730361,12.9170859 C14.9673247,12.8352187 14.7828763,12.7558125 14.6195773,12.6787031 C14.4563351,12.6015937 14.3175309,12.5229531 14.2032784,12.4426719 C14.0889691,12.3624453 14.000799,12.2774609 13.938768,12.1877734 C13.8767371,12.0980859 13.8457216,11.9966406 13.8457216,11.8833281 C13.8457216,11.7794766 13.8734485,11.6859063 13.9289588,11.6025078 C13.9844691,11.5191094 14.0628866,11.4475234 14.1640979,11.38775 C14.2653093,11.3279219 14.3893711,11.2815469 14.5363402,11.2484609 C14.6832526,11.2154297 14.8465515,11.1989141 15.0261237,11.1989141 C15.1567629,11.1989141 15.2947165,11.208375 15.4399845,11.2272422 C15.5853093,11.2461094 15.7314278,11.2752031 15.8783969,11.3145781 C16.0248961,11.3537493 16.168146,11.4034535 16.3069433,11.4632734 C16.4415291,11.5207947 16.5702512,11.5903127 16.691433,11.6709219 L16.691433,10.2596016 C16.4530619,10.1715 16.192634,10.1062031 15.9102062,10.0637109 C15.6277784,10.0212188 15.3036753,10 14.9379536,10 C14.5657113,10 14.2130876,10.0385547 13.8800258,10.1156641 C13.5469639,10.1927187 13.2538763,10.3130859 13.0008196,10.4767109 C12.7477629,10.6403906 12.5477784,10.8488594 12.4008093,11.1021719 C12.2538969,11.3554844 12.1804124,11.6583438 12.1804124,12.0108047 C12.1804124,12.4607734 12.3150773,12.8446797 12.5845206,13.1625234 C12.8539072,13.4803125 13.2628351,13.749375 13.8114175,13.9696562 C14.0139301,14.0492024 14.2147858,14.1326172 14.413866,14.2198516 C14.6000155,14.3016641 14.7608196,14.3865937 14.8963351,14.4746953 C15.0318505,14.5627969 15.1387887,14.6587734 15.2171495,14.762625 C15.2955103,14.8664766 15.3346907,14.9844922 15.3346907,15.1166719 C15.3353412,15.2117984 15.3099958,15.3054114 15.2612062,15.3880859 C15.2122732,15.4714297 15.1379381,15.5438359 15.0383711,15.6051953 C14.9388041,15.6665547 14.8146856,15.7145156 14.6661289,15.7491328 C14.5175722,15.78375 14.3436701,15.8010859 14.1444794,15.8010859 C13.8048969,15.8010859 13.4686031,15.7436641 13.1355412,15.6287656 C12.8024227,15.5139219 12.4938557,15.3416562 12.2097835,15.1119141 L12.2097835,15.1119141 Z M9.59949485,11.3530781 L11.6134021,11.3530781 L11.6134021,10.109375 L6,10.109375 L6,11.3530781 L8.00409794,11.3530781 L8.00409794,16.890625 L9.59949485,16.890625 L9.59949485,11.3530781 Z" id="Shape" fill="#E7E5E4" fill-rule="nonzero"></path>
            </g>
        </g>
    </g>
</svg>