<svg width="1200" height="720" viewBox="0 0 1200 720" fill="none" xmlns="http://www.w3.org/2000/svg">
  <rect width="1200" height="720" fill="transparent"/>
  <g stroke="currentColor" stroke-width="2" opacity="0.45">
    <path d="M180 84V636"/>
    <path d="M360 84V636"/>
    <path d="M540 84V636"/>
    <path d="M720 84V636"/>
    <path d="M900 84V636"/>
    <path d="M1020 84V636"/>
    <path d="M120 174H1080"/>
    <path d="M120 294H1080"/>
    <path d="M120 414H1080"/>
    <path d="M120 534H1080"/>
  </g>
  <g fill="currentColor">
    <rect x="140" y="106" width="200" height="46" opacity="0.9"/>
    <rect x="380" y="106" width="200" height="46" opacity="0.9"/>
    <rect x="620" y="106" width="200" height="46" opacity="0.9"/>
    <rect x="860" y="106" width="200" height="46" opacity="0.9"/>

    <rect x="140" y="226" width="200" height="46" opacity="0.75"/>
    <rect x="380" y="226" width="200" height="46" opacity="0.75"/>
    <rect x="620" y="226" width="200" height="46" opacity="0.75"/>
    <rect x="860" y="226" width="200" height="46" opacity="0.75"/>

    <rect x="140" y="346" width="200" height="46" opacity="0.6"/>
    <rect x="380" y="346" width="200" height="46" opacity="0.6"/>
    <rect x="620" y="346" width="200" height="46" opacity="0.6"/>
    <rect x="860" y="346" width="200" height="46" opacity="0.6"/>

    <rect x="140" y="466" width="200" height="46" opacity="0.45"/>
    <rect x="380" y="466" width="200" height="46" opacity="0.45"/>
    <rect x="620" y="466" width="200" height="46" opacity="0.45"/>
    <rect x="860" y="466" width="200" height="46" opacity="0.45"/>
  </g>
  <g stroke="#F88D39" stroke-width="8" stroke-linecap="square">
    <path d="M140 129H340"/>
    <path d="M380 249H580"/>
    <path d="M620 369H820"/>
    <path d="M860 489H1060"/>
  </g>
  <g fill="#F88D39" opacity="0.16">
    <rect x="120" y="84" width="960" height="120"/>
    <rect x="120" y="444" width="960" height="120"/>
  </g>
</svg>
