<svg width="1200" height="720" viewBox="0 0 1200 720" fill="none" xmlns="http://www.w3.org/2000/svg">
  <rect width="1200" height="720" fill="transparent"/>
  <g stroke="currentColor" stroke-width="3" opacity="0.85">
    <rect x="120" y="126" width="228" height="126"/>
    <rect x="486" y="86" width="228" height="126"/>
    <rect x="852" y="126" width="228" height="126"/>
    <rect x="486" y="426" width="228" height="126"/>
  </g>
  <g stroke="#F88D39" stroke-width="6" stroke-linecap="square" stroke-linejoin="miter">
    <path d="M348 188H452"/>
    <path d="M714 148H818"/>
    <path d="M966 252V356"/>
    <path d="M852 488H748"/>
    <path d="M486 488H382"/>
    <path d="M234 426V322"/>
    <path d="M432 188L452 188L440 176"/>
    <path d="M798 148L818 148L806 136"/>
    <path d="M966 336L966 356L978 344"/>
    <path d="M768 488L748 488L760 500"/>
    <path d="M402 488L382 488L394 500"/>
    <path d="M234 342L234 322L222 334"/>
  </g>
  <g fill="currentColor">
    <rect x="154" y="162" width="160" height="14" opacity="0.9"/>
    <rect x="154" y="192" width="122" height="10" opacity="0.55"/>
    <rect x="520" y="122" width="160" height="14" opacity="0.9"/>
    <rect x="520" y="152" width="138" height="10" opacity="0.55"/>
    <rect x="886" y="162" width="160" height="14" opacity="0.9"/>
    <rect x="886" y="192" width="112" height="10" opacity="0.55"/>
    <rect x="520" y="462" width="160" height="14" opacity="0.9"/>
    <rect x="520" y="492" width="146" height="10" opacity="0.55"/>
  </g>
  <g fill="#F88D39" opacity="0.18">
    <rect x="120" y="126" width="228" height="126"/>
    <rect x="486" y="426" width="228" height="126"/>
  </g>
</svg>
