<svg width="1200" height="720" viewBox="0 0 1200 720" fill="none" xmlns="http://www.w3.org/2000/svg">
  <rect width="1200" height="720" fill="transparent"/>
  <g stroke="currentColor" stroke-width="3" opacity="0.8">
    <rect x="120" y="110" width="960" height="500"/>
    <path d="M120 196H1080"/>
    <path d="M120 282H1080"/>
    <path d="M120 368H1080"/>
    <path d="M120 454H1080"/>
    <path d="M120 540H1080"/>
    <path d="M300 110V610"/>
    <path d="M510 110V610"/>
    <path d="M720 110V610"/>
    <path d="M930 110V610"/>
  </g>
  <g fill="#F88D39" opacity="0.16">
    <rect x="300" y="196" width="210" height="86"/>
    <rect x="510" y="282" width="210" height="86"/>
    <rect x="720" y="368" width="210" height="86"/>
    <rect x="510" y="454" width="210" height="86"/>
  </g>
  <g stroke="#F88D39" stroke-width="7" stroke-linecap="square">
    <path d="M160 239H272"/>
    <path d="M370 325H482"/>
    <path d="M580 411H692"/>
    <path d="M790 497H902"/>
    <path d="M902 497L888 511"/>
  </g>
  <g fill="currentColor">
    <rect x="160" y="138" width="90" height="18" opacity="0.95"/>
    <rect x="160" y="224" width="90" height="18" opacity="0.95"/>
    <rect x="160" y="310" width="90" height="18" opacity="0.95"/>
    <rect x="160" y="396" width="90" height="18" opacity="0.95"/>
    <rect x="160" y="482" width="90" height="18" opacity="0.95"/>
    <rect x="160" y="568" width="90" height="18" opacity="0.95"/>
  </g>
</svg>
